<?xml version="1.0" encoding="UTF-8" standalone="no"?><svg xmlns="http://www.w3.org/2000/svg" xmlns:xlink= "http://www.w3.org/1999/xlink" width="600" height="390" aria-label="A chart." style="overflow: hidden;"><defs id="_ABSTRACT_RENDERER_ID_592"><clipPath id="_ABSTRACT_RENDERER_ID_593"><rect x="115" y="75" width="371" height="241"></rect></clipPath></defs><rect x="0" y="0" width="600" height="390" stroke="none" stroke-width="0" fill="#ffffff"></rect><g><text text-anchor="start" x="115" y="52.05" font-family="Arial" font-size="13" font-weight="bold" stroke="none" stroke-width="0" fill="#000000">Question length distribution</text><rect x="115" y="41" width="371" height="13" stroke="none" stroke-width="0" fill-opacity="0" fill="#ffffff"></rect></g><g><rect x="115" y="75" width="371" height="241" stroke="none" stroke-width="0" fill-opacity="0" fill="#ffffff"></rect><g clip-path="url(https://www.rapidtables.com/tools/bar-graph.html#_ABSTRACT_RENDERER_ID_593)"><g><rect x="115" y="315" width="371" height="1" stroke="none" stroke-width="0" fill="#cccccc"></rect><rect x="115" y="267" width="371" height="1" stroke="none" stroke-width="0" fill="#cccccc"></rect><rect x="115" y="219" width="371" height="1" stroke="none" stroke-width="0" fill="#cccccc"></rect><rect x="115" y="171" width="371" height="1" stroke="none" stroke-width="0" fill="#cccccc"></rect><rect x="115" y="123" width="371" height="1" stroke="none" stroke-width="0" fill="#cccccc"></rect><rect x="115" y="75" width="371" height="1" stroke="none" stroke-width="0" fill="#cccccc"></rect><rect x="115" y="291" width="371" height="1" stroke="none" stroke-width="0" fill="#ebebeb"></rect><rect x="115" y="243" width="371" height="1" stroke="none" stroke-width="0" fill="#ebebeb"></rect><rect x="115" y="195" width="371" height="1" stroke="none" stroke-width="0" fill="#ebebeb"></rect><rect x="115" y="147" width="371" height="1" stroke="none" stroke-width="0" fill="#ebebeb"></rect><rect x="115" y="99" width="371" height="1" stroke="none" stroke-width="0" fill="#ebebeb"></rect></g><g><rect x="122" y="314.924" width="21" height="0.5760000000000218" stroke="none" stroke-width="0" fill="#3366cc"></rect><rect x="156" y="310" width="20" height="5" stroke="none" stroke-width="0" fill="#3366cc"></rect><rect x="189" y="274" width="21" height="41" stroke="none" stroke-width="0" fill="#3366cc"></rect><rect x="223" y="159" width="21" height="156" stroke="none" stroke-width="0" fill="#3366cc"></rect><rect x="256" y="113" width="21" height="202" stroke="none" stroke-width="0" fill="#3366cc"></rect><rect x="290" y="208" width="21" height="107" stroke="none" stroke-width="0" fill="#3366cc"></rect><rect x="324" y="278" width="21" height="37" stroke="none" stroke-width="0" fill="#3366cc"></rect><rect x="357" y="306" width="21" height="9" stroke="none" stroke-width="0" fill="#3366cc"></rect><rect x="391" y="312" width="21" height="3" stroke="none" stroke-width="0" fill="#3366cc"></rect><rect x="425" y="315.308" width="20" height="0.5" stroke="none" stroke-width="0" fill="#3366cc"></rect><rect x="458" y="315.308" width="21" height="0.5" stroke="none" stroke-width="0" fill="#3366cc"></rect></g><g><rect x="115" y="315" width="371" height="1" stroke="none" stroke-width="0" fill="#333333"></rect></g></g><g></g><g><g><text text-anchor="middle" x="132.3181818181818" y="335.05" font-family="Arial" font-size="13" stroke="none" stroke-width="0" fill="#222222">1</text></g><g><text text-anchor="middle" x="165.95454545454544" y="335.05" font-family="Arial" font-size="13" stroke="none" stroke-width="0" fill="#222222">2</text></g><g><text text-anchor="middle" x="199.59090909090907" y="335.05" font-family="Arial" font-size="13" stroke="none" stroke-width="0" fill="#222222">3</text></g><g><text text-anchor="middle" x="233.22727272727272" y="335.05" font-family="Arial" font-size="13" stroke="none" stroke-width="0" fill="#222222">4</text></g><g><text text-anchor="middle" x="266.8636363636364" y="335.05" font-family="Arial" font-size="13" stroke="none" stroke-width="0" fill="#222222">5</text></g><g><text text-anchor="middle" x="300.5" y="335.05" font-family="Arial" font-size="13" stroke="none" stroke-width="0" fill="#222222">6</text></g><g><text text-anchor="middle" x="334.1363636363636" y="335.05" font-family="Arial" font-size="13" stroke="none" stroke-width="0" fill="#222222">7</text></g><g><text text-anchor="middle" x="367.77272727272725" y="335.05" font-family="Arial" font-size="13" stroke="none" stroke-width="0" fill="#222222">8</text></g><g><text text-anchor="middle" x="401.4090909090909" y="335.05" font-family="Arial" font-size="13" stroke="none" stroke-width="0" fill="#222222">9</text></g><g><text text-anchor="middle" x="435.0454545454545" y="335.05" font-family="Arial" font-size="13" stroke="none" stroke-width="0" fill="#222222">10</text></g><g><text text-anchor="middle" x="468.68181818181813" y="335.05" font-family="Arial" font-size="13" stroke="none" stroke-width="0" fill="#222222">11</text></g><g><text text-anchor="end" x="102" y="320.05" font-family="Arial" font-size="13" stroke="none" stroke-width="0" fill="#444444">0</text></g><g><text text-anchor="end" x="102" y="272.05" font-family="Arial" font-size="13" stroke="none" stroke-width="0" fill="#444444">200</text></g><g><text text-anchor="end" x="102" y="224.05" font-family="Arial" font-size="13" stroke="none" stroke-width="0" fill="#444444">400</text></g><g><text text-anchor="end" x="102" y="176.05" font-family="Arial" font-size="13" stroke="none" stroke-width="0" fill="#444444">600</text></g><g><text text-anchor="end" x="102" y="128.05" font-family="Arial" font-size="13" stroke="none" stroke-width="0" fill="#444444">800</text></g><g><text text-anchor="end" x="102" y="80.05" font-family="Arial" font-size="13" stroke="none" stroke-width="0" fill="#444444">1,000</text></g></g></g><g><g><text text-anchor="middle" x="300.5" y="368.05" font-family="Arial" font-size="13" font-style="italic" stroke="none" stroke-width="0" fill="#222222">Number of sentences</text><rect x="115" y="357" width="371" height="13" stroke="none" stroke-width="0" fill-opacity="0" fill="#ffffff"></rect></g><g><text text-anchor="middle" x="39.05" y="195.5" font-family="Arial" font-size="13" font-style="italic" transform="rotate(-90 39.05 195.5)" stroke="none" stroke-width="0" fill="#222222">Number of questions</text><path d="M27.999999999999996,316L28.00000000000001,75L41.00000000000001,75L40.99999999999999,316Z" stroke="none" stroke-width="0" fill-opacity="0" fill="#ffffff"></path></g></g><g></g></svg>